<svg xmlns="http://www.w3.org/2000/svg" viewBox="0 0 1800 1250" font-family="'SF Pro Display', 'Inter', 'Segoe UI', system-ui, -apple-system, sans-serif">
  <defs>
    <marker id="arrow" markerWidth="12" markerHeight="8" refX="11" refY="4" orient="auto" markerUnits="strokeWidth">
      <polygon points="0 0, 12 4, 0 8" fill="#58a6ff"/>
    </marker>
    <marker id="arrowOrange" markerWidth="12" markerHeight="8" refX="11" refY="4" orient="auto" markerUnits="strokeWidth">
      <polygon points="0 0, 12 4, 0 8" fill="#d29922"/>
    </marker>
    <marker id="arrowGreen" markerWidth="12" markerHeight="8" refX="11" refY="4" orient="auto" markerUnits="strokeWidth">
      <polygon points="0 0, 12 4, 0 8" fill="#3fb950"/>
    </marker>
    <marker id="arrowPurple" markerWidth="12" markerHeight="8" refX="11" refY="4" orient="auto" markerUnits="strokeWidth">
      <polygon points="0 0, 12 4, 0 8" fill="#bc8cff"/>
    </marker>
    <marker id="arrowCoral" markerWidth="12" markerHeight="8" refX="11" refY="4" orient="auto" markerUnits="strokeWidth">
      <polygon points="0 0, 12 4, 0 8" fill="#f78166"/>
    </marker>
  </defs>

  <!-- Background (always visible) -->
  <rect width="1800" height="1250" rx="0" fill="#0d1117"/>

  <!-- ================================================================ -->
  <!-- PHASE 1: STAGGERED FADE-IN (0–10s)                              -->
  <!-- ================================================================ -->

  <!-- TITLE — 0.0s -->
  <g opacity="0">
    <animate attributeName="opacity" from="0" to="1" begin="0.0s" dur="0.6s" fill="freeze"/>
    <text x="900" y="55" text-anchor="middle" fill="#f0f6fc" font-size="32" font-weight="700" letter-spacing="1">Steer Architecture</text>
    <text x="900" y="88" text-anchor="middle" fill="#8b949e" font-size="16" font-weight="500" letter-spacing="3">ARCHITECTURE FOR macOS AI AGENTS</text>
  </g>

  <!-- TRIGGER LAYER label — 1.0s -->
  <g opacity="0">
    <animate attributeName="opacity" from="0" to="1" begin="1.0s" dur="0.5s" fill="freeze"/>
    <text x="100" y="178" fill="#d29922" font-size="14" font-weight="600" letter-spacing="2">TRIGGER LAYER</text>
    <line x1="100" y1="190" x2="1100" y2="190" stroke="#d29922" stroke-width="1" opacity="0.3"/>
  </g>

  <!-- Cron — 1.5s -->
  <g opacity="0">
    <animate attributeName="opacity" from="0" to="1" begin="1.5s" dur="0.5s" fill="freeze"/>
    <rect x="100" y="210" width="220" height="90" rx="14" fill="#141c28" stroke="#d29922" stroke-width="3">
      <animate attributeName="stroke-opacity" values="1;0.5;1" begin="10s" dur="2.5s" repeatCount="indefinite"/>
    </rect>
    <text x="210" y="250" text-anchor="middle" fill="#d29922" font-size="14" font-weight="600" letter-spacing="1.5">SCHEDULER</text>
    <text x="210" y="278" text-anchor="middle" fill="#f0f6fc" font-size="22" font-weight="700">Cron</text>
  </g>

  <!-- Build — 2.0s -->
  <g opacity="0">
    <animate attributeName="opacity" from="0" to="1" begin="2.0s" dur="0.5s" fill="freeze"/>
    <rect x="360" y="210" width="220" height="90" rx="14" fill="#141c28" stroke="#d29922" stroke-width="3">
      <animate attributeName="stroke-opacity" values="1;0.5;1" begin="10.3s" dur="2.5s" repeatCount="indefinite"/>
    </rect>
    <text x="470" y="250" text-anchor="middle" fill="#d29922" font-size="14" font-weight="600" letter-spacing="1.5">ENGINEER</text>
    <text x="470" y="278" text-anchor="middle" fill="#f0f6fc" font-size="22" font-weight="700">Build</text>
  </g>

  <!-- Direct — 2.5s -->
  <g opacity="0">
    <animate attributeName="opacity" from="0" to="1" begin="2.5s" dur="0.5s" fill="freeze"/>
    <rect x="620" y="210" width="220" height="90" rx="14" fill="#141c28" stroke="#d29922" stroke-width="3">
      <animate attributeName="stroke-opacity" values="1;0.5;1" begin="10.6s" dur="2.5s" repeatCount="indefinite"/>
    </rect>
    <text x="730" y="250" text-anchor="middle" fill="#d29922" font-size="14" font-weight="600" letter-spacing="1.5">CLI CLIENT</text>
    <text x="730" y="278" text-anchor="middle" fill="#f0f6fc" font-size="22" font-weight="700">Direct</text>
  </g>

  <!-- Agent — 3.0s -->
  <g opacity="0">
    <animate attributeName="opacity" from="0" to="1" begin="3.0s" dur="0.5s" fill="freeze"/>
    <rect x="880" y="210" width="220" height="90" rx="14" fill="#141c28" stroke="#d29922" stroke-width="3">
      <animate attributeName="stroke-opacity" values="1;0.5;1" begin="10.9s" dur="2.5s" repeatCount="indefinite"/>
    </rect>
    <text x="990" y="250" text-anchor="middle" fill="#d29922" font-size="14" font-weight="600" letter-spacing="1.5">RUNNER</text>
    <text x="990" y="278" text-anchor="middle" fill="#f0f6fc" font-size="22" font-weight="700">Agent</text>
  </g>

  <!-- Trigger → Listen arrows — 3.5s -->
  <g opacity="0">
    <animate attributeName="opacity" from="0" to="1" begin="3.5s" dur="0.6s" fill="freeze"/>
    <line x1="210" y1="300" x2="300" y2="366" stroke="#d29922" stroke-width="2" marker-end="url(#arrowOrange)">
      <animate attributeName="opacity" values="1;0.4;1" begin="10s" dur="2s" repeatCount="indefinite"/>
    </line>
    <line x1="470" y1="300" x2="430" y2="366" stroke="#d29922" stroke-width="2" marker-end="url(#arrowOrange)">
      <animate attributeName="opacity" values="1;0.4;1" begin="10.3s" dur="2s" repeatCount="indefinite"/>
    </line>
    <line x1="730" y1="300" x2="640" y2="366" stroke="#d29922" stroke-width="2" marker-end="url(#arrowOrange)">
      <animate attributeName="opacity" values="1;0.4;1" begin="10.6s" dur="2s" repeatCount="indefinite"/>
    </line>
    <line x1="990" y1="300" x2="830" y2="366" stroke="#d29922" stroke-width="2" marker-end="url(#arrowOrange)">
      <animate attributeName="opacity" values="1;0.4;1" begin="10.9s" dur="2s" repeatCount="indefinite"/>
    </line>
  </g>

  <!-- JOB DISPATCH LAYER label — 4.0s -->
  <g opacity="0">
    <animate attributeName="opacity" from="0" to="1" begin="4.0s" dur="0.5s" fill="freeze"/>
    <text x="100" y="338" fill="#f78166" font-size="14" font-weight="600" letter-spacing="2">JOB DISPATCH LAYER</text>
    <line x1="100" y1="350" x2="1100" y2="350" stroke="#f78166" stroke-width="1" opacity="0.3"/>
  </g>

  <!-- Listen box — 4.5s -->
  <g opacity="0">
    <animate attributeName="opacity" from="0" to="1" begin="4.5s" dur="0.5s" fill="freeze"/>
    <rect x="200" y="370" width="720" height="100" rx="16" fill="#1c1814" stroke="#f78166" stroke-width="3">
      <animate attributeName="stroke-opacity" values="1;0.4;1" begin="10s" dur="3s" repeatCount="indefinite"/>
    </rect>
    <text x="560" y="403" text-anchor="middle" fill="#f78166" font-size="14" font-weight="600" letter-spacing="2">JOB SERVER</text>
    <text x="560" y="436" text-anchor="middle" fill="#f0f6fc" font-size="28" font-weight="700">Listen</text>
    <text x="560" y="460" text-anchor="middle" fill="#c9d1d9" font-size="14" font-weight="400">FastAPI · Workers · YAML Jobs</text>
  </g>

  <!-- Listen → Sandbox arrow — 5.0s -->
  <g opacity="0">
    <animate attributeName="opacity" from="0" to="1" begin="5.0s" dur="0.5s" fill="freeze"/>
    <line x1="560" y1="470" x2="560" y2="554" stroke="#f78166" stroke-width="2" marker-end="url(#arrowCoral)">
      <animate attributeName="opacity" values="1;0.3;1" begin="10s" dur="2s" repeatCount="indefinite"/>
    </line>
  </g>

  <!-- macOS AGENT SANDBOX — 5.5s -->
  <g opacity="0">
    <animate attributeName="opacity" from="0" to="1" begin="5.5s" dur="0.6s" fill="freeze"/>
    <rect x="80" y="490" width="1100" height="740" rx="20" fill="none" stroke="#3fb950" stroke-width="3" stroke-dasharray="12,6" opacity="0.6">
      <animate attributeName="stroke-dashoffset" from="0" to="-36" begin="10s" dur="2s" repeatCount="indefinite"/>
    </rect>
    <rect x="80" y="475" width="370" height="32" rx="8" fill="#0d1117"/>
    <svg x="86" y="476" width="26" height="30" viewBox="0 0 384 512">
      <path d="M318.7 268.7c-.2-36.7 16.4-64.4 50-84.8-18.8-26.9-47.2-41.7-84.7-44.6-35.5-2.8-74.3 20.7-88.5 20.7-15 0-49.4-19.7-76.4-19.7C63.3 141.2 4 184.8 4 273.5c0 26.2 4.8 53.3 14.4 81.2 12.8 36.7 59 126.7 107.2 125.2 25.2-.6 43-17.9 75.8-17.9 31.8 0 48.3 17.9 76.4 17.9 48.6-.7 90.4-82.5 102.6-119.3-65.2-30.7-61.7-90-61.7-91.9zm-56.6-164.2c27.3-32.4 24.8-62.1 24.1-72.5-24.1 1.4-52 16.4-67.9 34.9-17.5 19.8-27.8 44.3-25.6 71.9 26.1 2 49.9-11.4 69.4-34.3z" fill="#f0f6fc"/>
    </svg>
    <text x="118" y="497" fill="#3fb950" font-size="18" font-weight="700" letter-spacing="2">macOS AGENT SANDBOX</text>
  </g>

  <!-- ORCHESTRATION LAYER label — 6.0s -->
  <g opacity="0">
    <animate attributeName="opacity" from="0" to="1" begin="6.0s" dur="0.5s" fill="freeze"/>
    <text x="100" y="530" fill="#58a6ff" font-size="14" font-weight="600" letter-spacing="2">ORCHESTRATION LAYER</text>
    <line x1="100" y1="542" x2="1100" y2="542" stroke="#58a6ff" stroke-width="1" opacity="0.3"/>
  </g>

  <!-- AI AGENT wrapper — 6.5s -->
  <g opacity="0">
    <animate attributeName="opacity" from="0" to="1" begin="6.5s" dur="0.5s" fill="freeze"/>
    <rect x="120" y="558" width="880" height="148" rx="18" fill="none" stroke="#bc8cff" stroke-width="2" stroke-dasharray="10,5" opacity="0.5">
      <animate attributeName="stroke-dashoffset" from="0" to="30" begin="10s" dur="2.5s" repeatCount="indefinite"/>
    </rect>
    <rect x="120" y="543" width="140" height="28" rx="6" fill="#0d1117"/>
    <text x="140" y="563" fill="#bc8cff" font-size="14" font-weight="600" letter-spacing="1.5">AI AGENT</text>
  </g>

  <!-- Drive — 7.0s -->
  <g opacity="0">
    <animate attributeName="opacity" from="0" to="1" begin="7.0s" dur="0.5s" fill="freeze"/>
    <rect x="140" y="572" width="380" height="120" rx="16" fill="#15202e" stroke="#58a6ff" stroke-width="3">
      <animate attributeName="stroke-opacity" values="1;0.4;1" begin="10s" dur="3s" repeatCount="indefinite"/>
    </rect>
    <text x="330" y="610" text-anchor="middle" fill="#58a6ff" font-size="14" font-weight="600" letter-spacing="2">TERMINAL CONTROL</text>
    <text x="330" y="644" text-anchor="middle" fill="#f0f6fc" font-size="28" font-weight="700">Drive</text>
    <text x="330" y="672" text-anchor="middle" fill="#c9d1d9" font-size="14" font-weight="400">session · run · send · logs · poll · fanout</text>
  </g>

  <!-- Steer — 7.5s -->
  <g opacity="0">
    <animate attributeName="opacity" from="0" to="1" begin="7.5s" dur="0.5s" fill="freeze"/>
    <rect x="600" y="572" width="380" height="120" rx="16" fill="#15202e" stroke="#79c0ff" stroke-width="3">
      <animate attributeName="stroke-opacity" values="1;0.4;1" begin="10.5s" dur="3s" repeatCount="indefinite"/>
    </rect>
    <text x="790" y="610" text-anchor="middle" fill="#79c0ff" font-size="14" font-weight="600" letter-spacing="2">GUI CONTROL</text>
    <text x="790" y="644" text-anchor="middle" fill="#f0f6fc" font-size="28" font-weight="700">Steer</text>
    <text x="790" y="672" text-anchor="middle" fill="#c9d1d9" font-size="14" font-weight="400">see · click · type · ocr · scroll · drag</text>
  </g>

  <!-- Orch → Exec arrows — 8.0s -->
  <g opacity="0">
    <animate attributeName="opacity" from="0" to="1" begin="8.0s" dur="0.5s" fill="freeze"/>
    <line x1="330" y1="692" x2="330" y2="800" stroke="#58a6ff" stroke-width="2" marker-end="url(#arrow)">
      <animate attributeName="opacity" values="1;0.3;1" begin="10s" dur="2s" repeatCount="indefinite"/>
    </line>
    <line x1="790" y1="692" x2="790" y2="800" stroke="#79c0ff" stroke-width="2" marker-end="url(#arrow)">
      <animate attributeName="opacity" values="1;0.3;1" begin="10.5s" dur="2s" repeatCount="indefinite"/>
    </line>
  </g>

  <!-- EXECUTION LAYER + boxes — 8.5s -->
  <g opacity="0">
    <animate attributeName="opacity" from="0" to="1" begin="8.5s" dur="0.5s" fill="freeze"/>
    <text x="100" y="778" fill="#3fb950" font-size="14" font-weight="600" letter-spacing="2">EXECUTION LAYER</text>
    <line x1="100" y1="790" x2="1100" y2="790" stroke="#3fb950" stroke-width="1" opacity="0.3"/>
    <!-- Terminal -->
    <rect x="140" y="810" width="380" height="140" rx="16" fill="#141f28" stroke="#3fb950" stroke-width="3">
      <animate attributeName="stroke-opacity" values="1;0.4;1" begin="11s" dur="3s" repeatCount="indefinite"/>
    </rect>
    <text x="330" y="850" text-anchor="middle" fill="#3fb950" font-size="14" font-weight="600" letter-spacing="2">TERMINAL</text>
    <rect x="190" y="865" width="280" height="60" rx="10" fill="#0d1117" stroke="#3fb950" stroke-width="2">
      <animate attributeName="stroke-opacity" values="1;0.5;1" begin="11s" dur="3s" repeatCount="indefinite"/>
    </rect>
    <text x="330" y="903" text-anchor="middle" fill="#f0f6fc" font-size="20" font-weight="600">tmux</text>
    <!-- GUI -->
    <rect x="600" y="810" width="380" height="140" rx="16" fill="#141f28" stroke="#79c0ff" stroke-width="3">
      <animate attributeName="stroke-opacity" values="1;0.4;1" begin="11.5s" dur="3s" repeatCount="indefinite"/>
    </rect>
    <text x="790" y="850" text-anchor="middle" fill="#79c0ff" font-size="14" font-weight="600" letter-spacing="2">macOS GUI</text>
    <text x="790" y="886" text-anchor="middle" fill="#f0f6fc" font-size="20" font-weight="600">Accessibility + OCR</text>
    <text x="790" y="916" text-anchor="middle" fill="#c9d1d9" font-size="16" font-weight="400">Vision · AX Tree · CGEvent</text>
  </g>

  <!-- Exec → Host Apps arrows + Host Apps — 9.0s -->
  <g opacity="0">
    <animate attributeName="opacity" from="0" to="1" begin="9.0s" dur="0.5s" fill="freeze"/>
    <line x1="330" y1="950" x2="430" y2="1055" stroke="#3fb950" stroke-width="2" marker-end="url(#arrowGreen)">
      <animate attributeName="opacity" values="1;0.3;1" begin="11s" dur="2s" repeatCount="indefinite"/>
    </line>
    <line x1="790" y1="950" x2="690" y2="1055" stroke="#3fb950" stroke-width="2" marker-end="url(#arrowGreen)">
      <animate attributeName="opacity" values="1;0.3;1" begin="11.5s" dur="2s" repeatCount="indefinite"/>
    </line>
    <text x="100" y="1040" fill="#8b949e" font-size="14" font-weight="600" letter-spacing="2">HOST APPS</text>
    <line x1="100" y1="1052" x2="1100" y2="1052" stroke="#8b949e" stroke-width="1" opacity="0.3"/>
  </g>

  <!-- Host Apps container — 9.5s -->
  <g opacity="0">
    <animate attributeName="opacity" from="0" to="1" begin="9.5s" dur="0.5s" fill="freeze"/>
    <rect x="280" y="1070" width="560" height="130" rx="16" fill="#161b22" stroke="#30363d" stroke-width="3"/>
    <text x="560" y="1105" text-anchor="middle" fill="#f0f6fc" font-size="16" font-weight="600" letter-spacing="2">CLI HOST APPS</text>
    <rect x="305" y="1120" width="80" height="55" rx="10" fill="#21262d" stroke="#30363d" stroke-width="2"/>
    <text x="345" y="1154" text-anchor="middle" fill="#f0f6fc" font-size="14" font-weight="500">Safari</text>
    <rect x="400" y="1120" width="80" height="55" rx="10" fill="#21262d" stroke="#30363d" stroke-width="2"/>
    <text x="440" y="1154" text-anchor="middle" fill="#f0f6fc" font-size="14" font-weight="500">Finder</text>
    <rect x="495" y="1120" width="80" height="55" rx="10" fill="#21262d" stroke="#30363d" stroke-width="2"/>
    <text x="535" y="1154" text-anchor="middle" fill="#f0f6fc" font-size="14" font-weight="500">Notes</text>
    <rect x="590" y="1120" width="80" height="55" rx="10" fill="#21262d" stroke="#30363d" stroke-width="2"/>
    <text x="630" y="1154" text-anchor="middle" fill="#f0f6fc" font-size="14" font-weight="500">Mail</text>
    <rect x="685" y="1120" width="80" height="55" rx="10" fill="#21262d" stroke="#30363d" stroke-width="2"/>
    <text x="725" y="1154" text-anchor="middle" fill="#f0f6fc" font-size="14" font-weight="500">VS Code</text>
  </g>

  <!-- ================================================================ -->
  <!-- RIGHT PANEL: CUSTOM AGENTS (staggered alongside main content)    -->
  <!-- ================================================================ -->

  <!-- Custom Agents label — 2.0s -->
  <g opacity="0">
    <animate attributeName="opacity" from="0" to="1" begin="2.0s" dur="0.5s" fill="freeze"/>
    <text x="1250" y="178" fill="#bc8cff" font-size="14" font-weight="600" letter-spacing="2">CUSTOM AGENTS</text>
    <line x1="1250" y1="190" x2="1700" y2="190" stroke="#bc8cff" stroke-width="1" opacity="0.3"/>
  </g>

  <!-- Custom Agents container — 2.5s -->
  <g opacity="0">
    <animate attributeName="opacity" from="0" to="1" begin="2.5s" dur="0.5s" fill="freeze"/>
    <rect x="1250" y="210" width="420" height="715" rx="16" fill="#1e1630" stroke="#bc8cff" stroke-width="3">
      <animate attributeName="stroke-opacity" values="1;0.4;1" begin="10s" dur="3.5s" repeatCount="indefinite"/>
    </rect>
    <text x="1460" y="255" text-anchor="middle" fill="#bc8cff" font-size="20" font-weight="700" letter-spacing="1">Custom Agents</text>
  </g>

  <!-- Claude Code — 3.0s -->
  <g opacity="0">
    <animate attributeName="opacity" from="0" to="1" begin="3.0s" dur="0.4s" fill="freeze"/>
    <rect x="1290" y="280" width="340" height="78" rx="12" fill="#0d1117" stroke="#bc8cff" stroke-width="2">
      <animate attributeName="stroke-opacity" values="1;0.5;1" begin="10.5s" dur="2s" repeatCount="indefinite"/>
    </rect>

    <svg x="1300" y="293" width="56" height="52" viewBox="0 0 52 48">
      <path d="M23.15 45.53l.66-2.91.75-3.76.61-3.01.57-3.71.33-1.22-.05-.1-.23.05-2.82 3.85-4.28 5.78-3.38 3.57-.8.33-1.41-.71.14-1.32.8-1.13 4.65-5.97 2.82-3.71 1.83-2.12-.05-.28h-.09L10.79 37.25l-2.21.28-1-.89.14-1.46.47-.47 3.71-2.59 9.26-5.17.14-.47-.14-.24h-.47l-1.55-.09-5.27-.14-4.56-.19-4.46-.24-1.13-.23-1.03-1.41.09-.71.94-.61 1.36.09 2.96.24 4.47.28 3.24.19 4.79.52h.75l.09-.33-.24-.19-.19-.19-4.65-3.1-4.98-3.29-2.63-1.93-1.41-.99-.7-.89-.28-1.97 1.27-1.41 1.74.14.42.09 1.74 1.36 3.71 2.87 4.89 3.62.7.56.33-.19v-.14l-.33-.52-2.63-4.79-2.82-4.89-1.27-2.02-.33-1.22c-.12-.42-.19-.89-.19-1.41l1.46-1.97.8-.28 1.97.28.8.71 1.22 2.77 1.93 4.37 3.05 5.92.89 1.79.47 1.6.19.52h.33v-.28l.24-3.38.47-4.09.47-5.27.14-1.5.75-1.79 1.46-.94 1.13.52.94 1.36-.14.85-.52 3.62-1.13 5.69-.7 3.85h.42l.47-.52 1.93-2.54 3.24-4.04 1.41-1.6 1.69-1.79 1.08-.85h2.02l1.46 2.21-.66 2.3-2.07 2.63-1.74 2.21-2.49 3.34-1.5 2.68.14.19h.33l5.59-1.22 3.05-.52 3.57-.61 1.65.75.19.75-.66 1.6-3.85.94-4.51.89-6.72 1.6-.09.05.09.14 3.01.28 1.32.09h3.19l5.92.42 1.55 1.04.89 1.22-.14.99-2.4 1.17-3.19-.75-7.52-1.79-2.54-.61h-.38v.19l2.16 2.12 3.9 3.52 4.94 4.56.24 1.13-.61.94-.66-.09-4.32-3.29-1.69-1.46-3.76-3.15h-.24v.33l.85 1.27 4.61 6.91.24 2.12-.33.66-1.22.42-1.27-.24-2.73-3.76-2.77-4.28-2.26-3.81-.24.19-1.36 14.19-.61.71-1.41.56-1.17-.89-.66-1.46z" fill="#D97757"/>
    </svg>
    <text x="1430" y="326" text-anchor="middle" fill="#f0f6fc" font-size="20" font-weight="600">Claude Code</text>
  </g>

  <!-- Pi Agent — 3.5s -->
  <g opacity="0">
    <animate attributeName="opacity" from="0" to="1" begin="3.5s" dur="0.4s" fill="freeze"/>
    <rect x="1290" y="375" width="340" height="78" rx="12" fill="#0d1117" stroke="#bc8cff" stroke-width="2">
      <animate attributeName="stroke-opacity" values="1;0.5;1" begin="11s" dur="2s" repeatCount="indefinite"/>
    </rect>

    <svg x="1300" y="388" width="56" height="52" viewBox="140 140 520 520">
      <path fill="#f0f6fc" fill-rule="evenodd" d="M165.29 165.29H517.36V400H400V517.36H282.65V634.72H165.29ZM282.65 282.65V400H400V282.65Z"/>
      <path fill="#f0f6fc" d="M517.36 400H634.72V634.72H517.36Z"/>
    </svg>
    <text x="1410" y="421" text-anchor="middle" fill="#f0f6fc" font-size="20" font-weight="600">Pi Agent</text>
  </g>

  <!-- Gemini CLI — 4.0s -->
  <g opacity="0">
    <animate attributeName="opacity" from="0" to="1" begin="4.0s" dur="0.4s" fill="freeze"/>
    <rect x="1290" y="470" width="340" height="78" rx="12" fill="#0d1117" stroke="#bc8cff" stroke-width="2">
      <animate attributeName="stroke-opacity" values="1;0.5;1" begin="11.5s" dur="2s" repeatCount="indefinite"/>
    </rect>

    <svg x="1300" y="483" width="56" height="52" viewBox="0 0 65 65">
      <path d="M32.447 0c.68 0 1.273.465 1.439 1.125a38.904 38.904 0 001.999 5.905c2.152 5 5.105 9.376 8.854 13.125 3.751 3.75 8.126 6.703 13.125 8.855a38.98 38.98 0 005.906 1.999c.66.166 1.124.758 1.124 1.438 0 .68-.464 1.273-1.125 1.439a38.902 38.902 0 00-5.905 1.999c-5 2.152-9.375 5.105-13.125 8.854-3.749 3.751-6.702 8.126-8.854 13.125a38.973 38.973 0 00-2 5.906 1.485 1.485 0 01-1.438 1.124c-.68 0-1.272-.464-1.438-1.125a38.913 38.913 0 00-2-5.905c-2.151-5-5.103-9.375-8.854-13.125-3.75-3.749-8.125-6.702-13.125-8.854a38.973 38.973 0 00-5.905-2A1.485 1.485 0 010 32.448c0-.68.465-1.272 1.125-1.438a38.903 38.903 0 005.905-2c5-2.151 9.376-5.104 13.125-8.854 3.75-3.749 6.703-8.125 8.855-13.125a38.972 38.972 0 001.999-5.905A1.485 1.485 0 0132.447 0z" fill="#4285f4"/>
    </svg>
    <text x="1430" y="516" text-anchor="middle" fill="#f0f6fc" font-size="20" font-weight="600">Gemini CLI</text>
  </g>

  <!-- Codex CLI — 4.5s -->
  <g opacity="0">
    <animate attributeName="opacity" from="0" to="1" begin="4.5s" dur="0.4s" fill="freeze"/>
    <rect x="1290" y="565" width="340" height="78" rx="12" fill="#0d1117" stroke="#bc8cff" stroke-width="2">
      <animate attributeName="stroke-opacity" values="1;0.5;1" begin="12s" dur="2s" repeatCount="indefinite"/>
    </rect>

    <svg x="1300" y="578" width="56" height="52" viewBox="0 0 320 320">
      <path d="m297.06 130.97c7.26-21.79 4.76-45.66-6.85-65.48-17.46-30.4-52.56-46.04-86.84-38.68-15.25-17.18-37.16-26.95-60.13-26.81-35.04-.08-66.13 22.48-76.91 55.82-22.51 4.61-41.94 18.7-53.31 38.67-17.59 30.32-13.58 68.54 9.92 94.54-7.26 21.79-4.76 45.66 6.85 65.48 17.46 30.4 52.56 46.04 86.84 38.68 15.24 17.18 37.16 26.95 60.13 26.8 35.06.09 66.16-22.49 76.94-55.86 22.51-4.61 41.94-18.7 53.31-38.67 17.57-30.32 13.55-68.51-9.94-94.51zm-120.28 168.11c-14.03.02-27.62-4.89-38.39-13.88.49-.26 1.34-.73 1.89-1.07l63.72-36.8c3.26-1.85 5.26-5.32 5.24-9.07v-89.83l26.93 15.55c.29.14.48.42.52.74v74.39c-.04 33.08-26.83 59.9-59.91 59.97zm-128.84-55.03c-7.03-12.14-9.56-26.37-7.15-40.18.47.28 1.3.79 1.89 1.13l63.72 36.8c3.23 1.89 7.23 1.89 10.47 0l77.79-44.92v31.1c.02.32-.13.63-.38.83l-64.41 37.19c-28.69 16.52-65.33 6.7-81.92-21.95zm-16.77-139.09c7-12.16 18.05-21.46 31.21-26.29 0 .55-.03 1.52-.03 2.2v73.61c-.02 3.74 1.98 7.21 5.23 9.06l77.79 44.91-26.93 15.55c-.27.18-.61.21-.91.08l-64.42-37.22c-28.63-16.58-38.45-53.21-21.95-81.89zm221.26 51.49-77.79-44.92 26.93-15.54c.27-.18.61-.21.91-.08l64.42 37.19c28.68 16.57 38.51 53.26 21.94 81.94-7.01 12.14-18.05 21.44-31.2 26.28v-75.81c.03-3.74-1.96-7.2-5.2-9.06zm26.8-40.34c-.47-.29-1.3-.79-1.89-1.13l-63.72-36.8c-3.23-1.89-7.23-1.89-10.47 0l-77.79 44.92v-31.1c-.02-.32.13-.63.38-.83l64.41-37.16c28.69-16.55 65.37-6.7 81.91 22 6.99 12.12 9.52 26.31 7.15 40.1zm-168.51 55.43-26.94-15.55c-.29-.14-.48-.42-.52-.74v-74.39c.02-33.12 26.89-59.96 60.01-59.94 14.01 0 27.57 4.92 38.34 13.88-.49.26-1.33.73-1.89 1.07l-63.72 36.8c-3.26 1.85-5.26 5.31-5.24 9.06l-.04 89.79zm14.63-31.54 34.65-20.01 34.65 20v40.01l-34.65 20-34.65-20z" fill="#f0f6fc"/>
    </svg>
    <text x="1430" y="611" text-anchor="middle" fill="#f0f6fc" font-size="20" font-weight="600">Codex CLI</text>
  </g>

  <!-- OpenCode — 5.0s -->
  <g opacity="0">
    <animate attributeName="opacity" from="0" to="1" begin="5.0s" dur="0.4s" fill="freeze"/>
    <rect x="1290" y="660" width="340" height="78" rx="12" fill="#0d1117" stroke="#bc8cff" stroke-width="2">
      <animate attributeName="stroke-opacity" values="1;0.5;1" begin="12.5s" dur="2s" repeatCount="indefinite"/>
    </rect>

    <svg x="1300" y="673" width="56" height="52" viewBox="96 64 320 384">
      <path d="M320 224V352H192V224H320Z" fill="#5A5858"/>
      <path fill-rule="evenodd" clip-rule="evenodd" d="M384 416H128V96H384V416ZM320 160H192V352H320V160Z" fill="#f0f6fc"/>
    </svg>
    <text x="1430" y="706" text-anchor="middle" fill="#f0f6fc" font-size="20" font-weight="600">OpenCode</text>
  </g>


  <!-- Custom Agents → AI Agent arrow — 9.5s (last to appear) -->
  <g opacity="0">
    <animate attributeName="opacity" from="0" to="1" begin="9.5s" dur="0.5s" fill="freeze"/>
    <line x1="1250" y1="632" x2="1005" y2="632" stroke="#bc8cff" stroke-width="3" marker-end="url(#arrowPurple)">
      <animate attributeName="opacity" values="1;0.3;1" begin="10s" dur="2.5s" repeatCount="indefinite"/>
    </line>
  </g>

  <!-- ================================================================ -->
  <!-- PHASE 2: DATA FLOW PARTICLES (10s+)                              -->
  <!-- Dots travel along arrow paths to show data flowing through       -->
  <!-- ================================================================ -->

  <!-- Particles: Trigger → Listen (diagonal) -->
  <!-- Cron → Listen -->
  <circle cx="210" cy="300" r="3" fill="#d29922" opacity="0">
    <animate attributeName="opacity" values="0;0.8;0.8;0" begin="10.2s" dur="1.8s" repeatCount="indefinite"/>
    <animate attributeName="cx" from="215" to="298" begin="10.2s" dur="1.8s" repeatCount="indefinite"/>
    <animate attributeName="cy" from="305" to="362" begin="10.2s" dur="1.8s" repeatCount="indefinite"/>
  </circle>
  <!-- Build → Listen -->
  <circle cx="470" cy="300" r="3" fill="#d29922" opacity="0">
    <animate attributeName="opacity" values="0;0.8;0.8;0" begin="10.7s" dur="1.8s" repeatCount="indefinite"/>
    <animate attributeName="cx" from="468" to="432" begin="10.7s" dur="1.8s" repeatCount="indefinite"/>
    <animate attributeName="cy" from="305" to="362" begin="10.7s" dur="1.8s" repeatCount="indefinite"/>
  </circle>
  <!-- Direct → Listen -->
  <circle cx="730" cy="300" r="3" fill="#d29922" opacity="0">
    <animate attributeName="opacity" values="0;0.8;0.8;0" begin="11.2s" dur="1.8s" repeatCount="indefinite"/>
    <animate attributeName="cx" from="728" to="642" begin="11.2s" dur="1.8s" repeatCount="indefinite"/>
    <animate attributeName="cy" from="305" to="362" begin="11.2s" dur="1.8s" repeatCount="indefinite"/>
  </circle>
  <!-- Agent → Listen -->
  <circle cx="990" cy="300" r="3" fill="#d29922" opacity="0">
    <animate attributeName="opacity" values="0;0.8;0.8;0" begin="11.7s" dur="1.8s" repeatCount="indefinite"/>
    <animate attributeName="cx" from="988" to="832" begin="11.7s" dur="1.8s" repeatCount="indefinite"/>
    <animate attributeName="cy" from="305" to="362" begin="11.7s" dur="1.8s" repeatCount="indefinite"/>
  </circle>

  <!-- Particle: Listen → Sandbox (vertical) -->
  <circle cx="560" cy="470" r="4" fill="#f78166" opacity="0">
    <animate attributeName="opacity" values="0;0.9;0.9;0" begin="10s" dur="1.2s" repeatCount="indefinite"/>
    <animate attributeName="cy" from="475" to="550" begin="10s" dur="1.2s" repeatCount="indefinite"/>
  </circle>
  <circle cx="560" cy="470" r="4" fill="#f78166" opacity="0">
    <animate attributeName="opacity" values="0;0.9;0.9;0" begin="10.6s" dur="1.2s" repeatCount="indefinite"/>
    <animate attributeName="cy" from="475" to="550" begin="10.6s" dur="1.2s" repeatCount="indefinite"/>
  </circle>

  <!-- Particle: Drive → Terminal (vertical) -->
  <circle cx="330" cy="692" r="4" fill="#58a6ff" opacity="0">
    <animate attributeName="opacity" values="0;0.9;0.9;0" begin="10s" dur="1.5s" repeatCount="indefinite"/>
    <animate attributeName="cy" from="697" to="795" begin="10s" dur="1.5s" repeatCount="indefinite"/>
  </circle>
  <circle cx="330" cy="692" r="4" fill="#58a6ff" opacity="0">
    <animate attributeName="opacity" values="0;0.9;0.9;0" begin="10.75s" dur="1.5s" repeatCount="indefinite"/>
    <animate attributeName="cy" from="697" to="795" begin="10.75s" dur="1.5s" repeatCount="indefinite"/>
  </circle>

  <!-- Particle: Steer → GUI (vertical) -->
  <circle cx="790" cy="692" r="4" fill="#79c0ff" opacity="0">
    <animate attributeName="opacity" values="0;0.9;0.9;0" begin="10.3s" dur="1.5s" repeatCount="indefinite"/>
    <animate attributeName="cy" from="697" to="795" begin="10.3s" dur="1.5s" repeatCount="indefinite"/>
  </circle>
  <circle cx="790" cy="692" r="4" fill="#79c0ff" opacity="0">
    <animate attributeName="opacity" values="0;0.9;0.9;0" begin="11.05s" dur="1.5s" repeatCount="indefinite"/>
    <animate attributeName="cy" from="697" to="795" begin="11.05s" dur="1.5s" repeatCount="indefinite"/>
  </circle>

  <!-- Particle: Terminal → Host Apps (diagonal) -->
  <circle cx="330" cy="950" r="4" fill="#3fb950" opacity="0">
    <animate attributeName="opacity" values="0;0.8;0.8;0" begin="11s" dur="1.8s" repeatCount="indefinite"/>
    <animate attributeName="cx" from="335" to="425" begin="11s" dur="1.8s" repeatCount="indefinite"/>
    <animate attributeName="cy" from="955" to="1050" begin="11s" dur="1.8s" repeatCount="indefinite"/>
  </circle>

  <!-- Particle: GUI → Host Apps (diagonal) -->
  <circle cx="790" cy="950" r="4" fill="#3fb950" opacity="0">
    <animate attributeName="opacity" values="0;0.8;0.8;0" begin="11.5s" dur="1.8s" repeatCount="indefinite"/>
    <animate attributeName="cx" from="785" to="695" begin="11.5s" dur="1.8s" repeatCount="indefinite"/>
    <animate attributeName="cy" from="955" to="1050" begin="11.5s" dur="1.8s" repeatCount="indefinite"/>
  </circle>

  <!-- Particle: Custom Agents → AI Agent (horizontal) -->
  <circle cx="1250" cy="632" r="5" fill="#bc8cff" opacity="0">
    <animate attributeName="opacity" values="0;0.9;0.9;0" begin="10s" dur="2s" repeatCount="indefinite"/>
    <animate attributeName="cx" from="1245" to="1010" begin="10s" dur="2s" repeatCount="indefinite"/>
  </circle>
  <circle cx="1250" cy="632" r="5" fill="#bc8cff" opacity="0">
    <animate attributeName="opacity" values="0;0.9;0.9;0" begin="11s" dur="2s" repeatCount="indefinite"/>
    <animate attributeName="cx" from="1245" to="1010" begin="11s" dur="2s" repeatCount="indefinite"/>
  </circle>

</svg>